<?xml version="1.0" encoding="utf-8"?>
<!-- Generator: Adobe Illustrator 23.1.0, SVG Export Plug-In . SVG Version: 6.00 Build 0)  -->
<svg version="1.1" id="Layer_1" xmlns="http://www.w3.org/2000/svg" xmlns:xlink="http://www.w3.org/1999/xlink" x="0px" y="0px"
	 viewBox="0 0 19 19" style="enable-background:new 0 0 19 19;" xml:space="preserve">
<style type="text/css">
	.st0{fill:#606161;}
</style>
<path class="st0" d="M10.9,9.5l7.8-7.8c0.4-0.4,0.4-1,0-1.4s-1-0.4-1.4,0L9.5,8.1L1.7,0.3c-0.4-0.4-1-0.4-1.4,0s-0.4,1,0,1.4
	l7.8,7.8l-7.8,7.8c-0.4,0.4-0.4,1,0,1.4v0c0.4,0.4,1,0.4,1.4,0l7.8-7.8l7.8,7.8c0.4,0.4,1,0.4,1.4,0v0c0.4-0.4,0.4-1,0-1.4L10.9,9.5
	z"/>
</svg>
