<?xml version="1.0" encoding="utf-8"?>
<!-- Generator: Adobe Illustrator 23.1.0, SVG Export Plug-In . SVG Version: 6.00 Build 0)  -->
<svg version="1.1" id="heart" xmlns="http://www.w3.org/2000/svg" xmlns:xlink="http://www.w3.org/1999/xlink" x="0px" y="0px"
	 viewBox="0 0 13 11" style="enable-background:new 0 0 13 11;" xml:space="preserve">
<path d="M12,1c-1.3-1.3-3.4-1.3-4.7,0L6.5,1.7L5.7,1C4.4-0.3,2.3-0.3,1,1c-1.3,1.3-1.3,3.4,0,4.6l0.8,0.8L6.5,11l4.7-4.6L12,5.6
	C13.3,4.3,13.3,2.2,12,1z M9.7,6.4L6.5,9.5L3.3,6.4L1.8,4.8C0.9,4,0.9,2.6,1.8,1.7c0.9-0.9,2.3-0.9,3.2,0l1.6,1.5l1.6-1.5
	c0.9-0.9,2.3-0.9,3.2,0c0.9,0.9,0.9,2.2,0,3.1L9.7,6.4z"/>
</svg>
