<?xml version="1.0" encoding="utf-8"?>
<!-- Generator: Adobe Illustrator 23.1.0, SVG Export Plug-In . SVG Version: 6.00 Build 0)  -->
<svg version="1.1" id="Layer_1" xmlns="http://www.w3.org/2000/svg" xmlns:xlink="http://www.w3.org/1999/xlink" x="0px" y="0px"
	 viewBox="0 0 18 18" style="enable-background:new 0 0 18 18;" xml:space="preserve">
<style type="text/css">
	.st0{fill:#231F20;}
</style>
<path class="st0" d="M13.3,1.2c1.9,0,3.5,1.6,3.5,3.5v8.6c0,1.9-1.6,3.5-3.5,3.5H4.7c-1.9,0-3.5-1.6-3.5-3.5V4.7
	c0-1.9,1.6-3.5,3.5-3.5L13.3,1.2 M13.3,0H4.7C2.1,0,0,2.1,0,4.7v8.6C0,15.9,2.1,18,4.7,18h8.6c2.6,0,4.7-2.1,4.7-4.7V4.7
	C18,2.1,15.9,0,13.3,0L13.3,0z"/>
<path class="st0" d="M9,5.5c1.9,0,3.5,1.6,3.5,3.5c0,1.9-1.6,3.5-3.5,3.5c-1.9,0-3.5-1.6-3.5-3.5C5.5,7.1,7.1,5.5,9,5.5 M9,4.4
	C6.4,4.4,4.4,6.4,4.4,9s2.1,4.6,4.6,4.6s4.6-2.1,4.6-4.6S11.6,4.4,9,4.4L9,4.4z"/>
<circle class="st0" cx="13.8" cy="4.2" r="1"/>
</svg>
