<?xml version="1.0" encoding="utf-8"?>
<!-- Generator: Adobe Illustrator 23.1.0, SVG Export Plug-In . SVG Version: 6.00 Build 0)  -->
<svg version="1.1" id="Layer_1" xmlns="http://www.w3.org/2000/svg" xmlns:xlink="http://www.w3.org/1999/xlink" x="0px" y="0px"
	 viewBox="0 0 22.5 11.8" style="enable-background:new 0 0 22.5 11.8;" xml:space="preserve">
<g>
	<path d="M18,11.8c-0.3,0-0.9-0.1-1.6-0.5c-0.5-0.3-0.9-0.7-1.3-1.1c-0.3-0.3-0.9-0.9-1.1-0.9c-0.2,0.1-0.4,0.7-0.4,1.2
		c0,0.1,0,0.6-0.4,0.9c-0.3,0.3-0.8,0.4-0.9,0.4l-1.4,0c-0.7,0-3.3-0.2-5.6-2.3C2.6,7,0.2,2.2,0.1,2C0,1.6-0.1,1.2,0.2,0.8
		c0.3-0.3,0.8-0.4,1-0.4l3.1,0l0.1,0c0.1,0,0.4,0.1,0.7,0.3c0.3,0.2,0.4,0.5,0.5,0.5c0,0,0.5,1.1,1.1,2c1,1.5,1.4,1.8,1.6,1.9
		c0.1-0.3,0.2-1.3,0.1-2.2c0-0.4-0.1-0.8-0.2-1C8.1,2,7.9,1.9,7.6,1.9L7.1,1.4C7,0.9,7.6,0.5,8,0.3C8.5,0,9.3,0,10.3,0l0.5,0
		c0.9,0,1.2,0.1,1.6,0.1c1.3,0.3,1.2,1.3,1.2,2.5c0,0.3,0,0.8,0,1.2c0,0.1,0,0.2,0,0.4c0,0.3,0,0.8,0.1,1c0.2-0.1,0.6-0.5,1.6-1.9
		c0.6-0.9,1.1-1.9,1.1-2.1l0,0c0.1-0.3,0.5-0.7,1.2-0.7l3.2,0c0,0,0.1,0,0.3,0c0.7,0,1.2,0.2,1.4,0.6c0.2,0.5,0.1,1.2-1.8,3.5
		c-0.3,0.3-0.5,0.6-0.7,0.8c-0.4,0.5-0.9,1-0.9,1.2c0,0.1,0.5,0.5,0.9,0.9c1.1,0.9,1.9,1.7,2.3,2.3c0.4,0.6,0.3,1,0.2,1.3
		c-0.3,0.6-1.2,0.7-1.4,0.7l-2.8,0C18.1,11.8,18,11.8,18,11.8z M14,8.2c0.7,0,1.3,0.6,1.9,1.2c0.4,0.4,0.8,0.8,1.1,1
		c0.5,0.3,1,0.3,1,0.3l0.1,0l2.9,0c0.1,0,0.3-0.1,0.4-0.1c0,0,0-0.1-0.1-0.1c-0.3-0.5-1-1.2-2-2c-0.9-0.7-1.4-1.1-1.4-1.7
		c0-0.6,0.4-1.1,1.2-2c0.2-0.2,0.5-0.5,0.7-0.8c1.2-1.4,1.5-2,1.5-2.2c-0.1,0-0.5,0-0.5,0l-3.3,0c-0.1,0-0.2,0-0.2,0
		C17.2,2,16.8,3,16.1,3.9c-1.4,2.1-2.1,2.4-2.6,2.4c-0.2,0-0.3,0-0.4-0.1c-0.8-0.4-0.7-1.4-0.7-2.1c0-0.1,0-0.2,0-0.3
		c0-0.5,0-0.9,0-1.3c0.1-1.3,0-1.3-0.3-1.3c-0.3-0.1-0.5-0.1-1.4-0.1l-0.5,0c-0.5,0-1,0-1.4,0.1C9,1.3,9,1.3,9.1,1.4
		C9.5,1.9,9.5,2.8,9.5,3c0.1,1.2,0,2.8-0.8,3.2C8.6,6.3,8.5,6.4,8.3,6.4c-0.7,0-1.4-0.7-2.6-2.5c-0.7-1-1.2-2.1-1.2-2.2
		c0,0,0-0.1-0.1-0.1c-0.1,0-0.2-0.1-0.2-0.1l-3,0c0,0,0,0-0.1,0c0.4,0.9,2.6,4.9,4.9,7.1c2.1,1.9,4.4,2,4.8,2l1.4,0
		c0,0,0.2,0,0.2-0.1c0,0,0,0,0-0.1c0-0.2,0-1.9,1.2-2.3C13.8,8.2,13.9,8.2,14,8.2z"/>
</g>
</svg>
